<?xml version="1.0" standalone="no"?>
<!DOCTYPE svg PUBLIC "-//W3C//DTD SVG 20010904//EN"
 "http://www.w3.org/TR/2001/REC-SVG-20010904/DTD/svg10.dtd">
<svg version="1.0" xmlns="http://www.w3.org/2000/svg"
 width="128.000000pt" height="128.000000pt" viewBox="0 0 128.000000 128.000000"
 preserveAspectRatio="xMidYMid meet">
<metadata>
Created by potrace 1.11, written by Peter Selinger 2001-2013
</metadata>
<g transform="translate(0.000000,128.000000) scale(0.100000,-0.100000)"
fill="#000000" stroke="none">
<path d="M283 1250 c-50 -12 -118 -56 -152 -99 -40 -50 -85 -150 -100 -219
-24 -115 -7 -410 33 -560 20 -73 40 -102 73 -102 l27 0 -31 -33 c-43 -43 -53
-75 -53 -163 l0 -74 480 0 480 0 0 44 c0 24 -5 147 -11 272 -8 186 -8 228 3
235 7 5 56 18 108 30 102 23 121 32 103 50 -8 8 -32 7 -86 -4 -75 -13 -76 -13
-79 7 -3 22 -19 24 -85 10 l-33 -6 0 128 c0 234 -58 374 -185 448 -57 34 -67
33 -27 -1 36 -32 50 -79 30 -106 -20 -27 -78 -31 -181 -13 -80 15 -100 22
-126 48 -32 31 -38 56 -21 87 8 16 3 19 -43 25 -62 7 -81 6 -124 -4z m115
-309 c20 -10 75 -26 122 -35 110 -22 178 -44 213 -68 38 -27 29 -31 -19 -9
-50 24 -91 18 -138 -21 -40 -33 -46 -62 -16 -78 19 -10 20 -10 8 9 -10 17 -10
23 2 35 13 13 15 11 16 -20 0 -20 7 -40 15 -45 24 -15 88 -10 129 11 28 14 40
17 40 8 -1 -31 -32 -142 -49 -176 -26 -50 -90 -115 -135 -136 -47 -22 -129
-23 -177 -3 -91 38 -173 154 -185 262 l-7 57 31 -16 c43 -22 110 -20 150 4 48
29 42 66 -15 101 -42 26 -101 27 -139 2 l-26 -16 16 38 c9 20 16 39 16 41 0 2
17 12 38 23 21 11 44 27 51 35 17 20 14 20 59 -3z m-148 -183 c0 -30 -1 -31
-16 -16 -9 9 -14 24 -11 32 11 27 27 17 27 -16z m499 19 c8 -11 6 -18 -9 -32
-20 -18 -20 -17 -20 13 0 34 10 41 29 19z m-339 -22 c0 -8 -4 -17 -10 -20 -6
-4 -10 5 -10 20 0 15 4 24 10 20 6 -3 10 -12 10 -20z m602 -136 l56 -11 -37
-37 c-45 -45 -62 -52 -100 -45 -37 8 -49 45 -26 80 18 27 29 29 107 13z m-152
-365 c0 -9 -5 -14 -12 -12 -18 6 -21 28 -4 28 9 0 16 -7 16 -16z"/>
<path d="M424 655 c-4 -8 1 -26 10 -40 33 -50 126 -25 126 34 0 18 -4 22 -17
16 -32 -14 -80 -17 -87 -6 -10 16 -26 14 -32 -4z"/>
<path d="M358 529 c-17 -11 1 -46 42 -83 35 -31 47 -36 90 -36 45 0 55 4 96
42 29 27 44 48 42 61 -3 18 -13 19 -131 21 -71 0 -133 -2 -139 -5z"/>
</g>
</svg>
